C:\Users\lingh\OneDrive - KTH\ExMaterials\7-Doctor\Research\2-simulation\PredSimResults\Falisse_et_al_20220.2weak\Falisse_et_al_2022_v1.mot
version=1
nRows=4
nColumns=124
inDegrees=yes
endheader
                time	         pelvis_tilt	         pelvis_list	     pelvis_rotation	           pelvis_tx	           pelvis_ty	           pelvis_tz	       hip_flexion_r	     hip_adduction_r	      hip_rotation_r	        knee_angle_r	       ankle_angle_r	    subtalar_angle_r	         mtp_angle_r	       hip_flexion_l	     hip_adduction_l	      hip_rotation_l	        knee_angle_l	       ankle_angle_l	    subtalar_angle_l	         mtp_angle_l	    lumbar_extension	      lumbar_bending	     lumbar_rotation	          arm_flex_r	           arm_add_r	           arm_rot_r	        elbow_flex_r	          arm_flex_l	           arm_add_l	           arm_rot_l	        elbow_flex_l	glut_med1_r/activation	glut_med2_r/activation	glut_med3_r/activation	glut_min1_r/activation	glut_min2_r/activation	glut_min3_r/activation	semimem_r/activation	semiten_r/activation	bifemlh_r/activation	bifemsh_r/activation	    sar_r/activation	add_long_r/activation	add_brev_r/activation	add_mag1_r/activation	add_mag2_r/activation	add_mag3_r/activation	    tfl_r/activation	   pect_r/activation	   grac_r/activation	glut_max1_r/activation	glut_max2_r/activation	glut_max3_r/activation	iliacus_r/activation	  psoas_r/activation	quad_fem_r/activation	    gem_r/activation	   peri_r/activation	rect_fem_r/activation	vas_med_r/activation	vas_int_r/activation	vas_lat_r/activation	med_gas_r/activation	lat_gas_r/activation	 soleus_r/activation	tib_post_r/activation	flex_dig_r/activation	flex_hal_r/activation	tib_ant_r/activation	per_brev_r/activation	per_long_r/activation	per_tert_r/activation	ext_dig_r/activation	ext_hal_r/activation	glut_med1_l/activation	glut_med2_l/activation	glut_med3_l/activation	glut_min1_l/activation	glut_min2_l/activation	glut_min3_l/activation	semimem_l/activation	semiten_l/activation	bifemlh_l/activation	bifemsh_l/activation	    sar_l/activation	add_long_l/activation	add_brev_l/activation	add_mag1_l/activation	add_mag2_l/activation	add_mag3_l/activation	    tfl_l/activation	   pect_l/activation	   grac_l/activation	glut_max1_l/activation	glut_max2_l/activation	glut_max3_l/activation	iliacus_l/activation	  psoas_l/activation	quad_fem_l/activation	    gem_l/activation	   peri_l/activation	rect_fem_l/activation	vas_med_l/activation	vas_int_l/activation	vas_lat_l/activation	med_gas_l/activation	lat_gas_l/activation	 soleus_l/activation	tib_post_l/activation	flex_dig_l/activation	flex_hal_l/activation	tib_ant_l/activation	per_brev_l/activation	per_long_l/activation	per_tert_l/activation	ext_dig_l/activation	ext_hal_l/activation	 ercspn_r/activation	 ercspn_l/activation	 intobl_r/activation	 intobl_l/activation	 extobl_r/activation	 extobl_l/activation	
          1.73672218	         -7.07031824	          4.34554941	        -13.17664585	          2.29180442	          0.89409300	          0.01381444	        -12.42649495	         -5.62689740	          5.09453504	        -10.55081303	          4.34809666	          3.84795849	         35.49471710	         36.11019194	         -0.84629258	         -3.40460171	        -13.68503871	         13.83627319	         -3.60815275	          0.30165689	          2.62254318	          0.68803157	          1.98202109	          4.03473713	        -13.45795952	         17.20943544	         95.18283605	        -17.60563142	        -13.57788627	         19.15623025	         11.94294191	          0.06345784	          0.08802254	          0.10126917	          0.05000358	          0.05966299	          0.07464089	          0.05000181	          0.05000077	          0.05000058	          0.05000198	          0.05031299	          0.26826596	          0.09101691	          0.07889621	          0.05007268	          0.05000152	          0.07114036	          0.07639976	          0.08488899	          0.05006797	          0.07116078	          0.08488884	          0.08816155	          0.42218455	          0.14511527	          0.10127383	          0.08979705	          0.34326431	          0.10751482	          0.11145313	          0.09574090	          0.49176637	          0.74357608	          0.14636728	          0.63643956	          0.62462705	          0.63696033	          0.05000006	          0.05259155	          0.10231634	          0.05000031	          0.05000009	          0.05000038	          0.14773872	          0.05964782	          0.05000532	          0.14986443	          0.06751809	          0.05964265	          0.18337892	          0.05964952	          0.14007141	          0.10105000	          0.05006425	          0.08488950	          0.07077981	          0.05000112	          0.07115958	          0.32860718	          0.05006376	          0.05012207	          0.11924637	          0.05000458	          0.21725061	          0.31148937	          0.08489027	          0.08489036	          0.05000030	          0.05192127	          0.05000170	          0.06007364	          0.05000154	          0.05000201	          0.07115807	          0.05000003	          0.05000008	          0.05000000	          0.05000012	          0.05000048	          0.05000033	          0.63864652	          0.31605125	          0.17914266	          0.49252339	          0.67006506	          0.33187122	          0.06472651	          0.14156841	          0.05000005	          0.17181520	          0.05000008	          0.06036911	
          1.74830033	         -7.08535556	          3.92805537	        -13.35762672	          2.31016309	          0.89179528	          0.01483686	        -13.40066402	         -5.43815449	          4.55412824	        -10.83536013	          2.95548844	          4.06607660	         36.63900808	         36.01362258	         -1.08227450	         -3.06632241	        -15.38918404	         13.25735576	         -3.89645213	          0.29761689	          2.72627044	          0.46883391	          1.91730755	          4.46197016	        -13.47603084	         17.81426446	         98.11902569	        -19.42671220	        -13.58813435	         19.08723575	         12.29398241	          0.05319367	          0.07378472	          0.08488849	          0.05000199	          0.05001876	          0.06256863	          0.05000149	          0.05000195	          0.05000301	          0.05000084	          0.05004834	          0.32973076	          0.15385831	          0.09072903	          0.07128681	          0.05000392	          0.05963636	          0.07112086	          0.07115860	          0.05005603	          0.05965265	          0.07115838	          0.07390245	          0.41136437	          0.12164213	          0.08489237	          0.07527214	          0.28773949	          0.12046764	          0.12346021	          0.10702605	          0.43264302	          0.66834514	          0.13925919	          0.60936467	          0.59253998	          0.60547088	          0.05000006	          0.05000035	          0.08576619	          0.05000022	          0.05000007	          0.05000034	          0.12384209	          0.05000062	          0.05000035	          0.12562418	          0.05659775	          0.05000132	          0.15391869	          0.05000097	          0.13009060	          0.08470467	          0.05005472	          0.07115857	          0.07115755	          0.05964948	          0.05964968	          0.36001069	          0.05905749	          0.05967530	          0.09995789	          0.05000047	          0.32465902	          0.38926057	          0.07115891	          0.07115895	          0.05000031	          0.05000082	          0.23582805	          0.05964839	          0.05964847	          0.05964845	          0.05964845	          0.06599452	          0.07115899	          0.06568918	          0.07115876	          0.05983197	          0.06453871	          0.53534210	          0.26492835	          0.15016542	          0.41285520	          0.57482506	          0.27818941	          0.09340389	          0.12277675	          0.05000009	          0.16000949	          0.05000006	          0.05060417	
          1.75987847	         -7.09425699	          3.48802251	        -13.47930940	          2.32868631	          0.88956657	          0.01581021	        -14.17646701	         -5.20885239	          3.98761111	        -11.52153693	          1.62317717	          4.32152922	         37.49986371	         35.81132211	         -1.29243832	         -2.69885870	        -17.24709233	         12.85195750	         -4.17234949	          0.27573720	          2.84631451	          0.24645573	          1.84469474	          4.84575211	        -13.49271835	         18.32528323	        100.79815050	        -21.18521176	        -13.58808754	         19.06878118	         12.66001467	          0.17194893	          0.06184986	          0.07115741	          0.14409776	          0.05002147	          0.05244861	          0.05004636	          0.05000090	          0.05000040	          0.05000333	          0.05000466	          0.38497925	          0.18726786	          0.07605393	          0.05976095	          0.10708745	          0.05001357	          0.05962859	          0.05964864	          0.05000862	          0.05000461	          0.05964841	          0.09433099	          0.49554672	          0.10196588	          0.07116067	          0.06309665	          0.24119611	          0.15008535	          0.17071574	          0.14372058	          0.36266094	          0.58898665	          0.13302526	          0.59077565	          0.58143566	          0.58845831	          0.05000008	          0.05000040	          0.07189314	          0.05000030	          0.05000009	          0.05000043	          0.33175645	          0.39365128	          0.46384341	          0.10530609	          0.17957398	          0.28452496	          0.12902156	          0.11873757	          0.10904810	          0.07115907	          0.05004558	          0.05964833	          0.05964748	          0.05000098	          0.05000122	          0.39964584	          0.05000708	          0.05002285	          0.08378943	          0.31532202	          0.42046942	          0.46152012	          0.05964860	          0.05964864	          0.05964801	          0.05949349	          0.19768388	          0.05000007	          0.05000010	          0.05000008	          0.05000007	          0.05531958	          0.05964868	          0.05506361	          0.05964847	          0.05015393	          0.05409933	          0.73775816	          0.36452624	          0.19298494	          0.66425192	          0.71932630	          0.45915006	          0.12601375	          0.10291700	          0.05000003	          0.17196143	          0.05000012	          0.05000008	
          1.77145662	         -7.09911572	          3.03763021	        -13.52873119	          2.34711449	          0.88762480	          0.01669624	        -14.71694046	         -4.94983549	          3.39548631	        -12.62232888	          0.35456048	          4.60955621	         37.93907234	         35.62620299	         -1.48591745	         -2.34513599	        -19.11640524	         12.40322574	         -4.42788218	          0.24679763	          2.96064326	          0.00921063	          1.76560048	          5.19862869	        -13.49924710	         18.73226800	        103.17416102	        -22.80054111	        -13.57955723	         19.10793580	         12.97733146	          0.14413654	          0.05184566	          0.05964745	          0.12079888	          0.05000799	          0.05000177	          0.05005469	          0.05000121	          0.05000054	          0.05000074	          0.05000455	          0.41909625	          0.26344224	          0.06375298	          0.06018513	          0.14852202	          0.05000458	          0.05000267	          0.05000129	          0.05000970	          0.05000216	          0.05000154	          0.07907380	          0.53924669	          0.08547237	          0.05965017	          0.05289070	          0.20218137	          0.16571422	          0.17188393	          0.15513893	          0.30399864	          0.50624076	          0.13172387	          0.56076248	          0.54252379	          0.55458685	          0.05000008	          0.05000095	          0.06459556	          0.05000034	          0.05000010	          0.05000044	          0.48546180	          0.47719532	          0.53928490	          0.29123084	          0.30895080	          0.35509091	          0.10815168	          0.10130778	          0.09802536	          0.05964879	          0.05000200	          0.05000019	          0.05000026	          0.05000058	          0.05012299	          0.42700253	          0.05000435	          0.05000121	          0.07023630	          0.34506541	          0.50462145	          0.52863723	          0.05000018	          0.05000021	          0.05000070	          0.05000318	          0.27589319	          0.05000011	          0.11434688	          0.13346582	          0.14127239	          0.05000006	          0.05000031	          0.05000002	          0.05000030	          0.05000066	          0.05000057	          0.78469102	          0.32417609	          0.16803555	          0.67338690	          0.72745762	          0.47200385	          0.14717998	          0.09775727	          0.05000003	          0.14414660	          0.05000011	          0.05000010	
